<svg xmlns="http://www.w3.org/2000/svg" xmlns:xlink="http://www.w3.org/1999/xlink" width="1146.177" height="775.168" viewBox="0 0 1146.177 775.168">
  <defs>
    <style>
      .cls-1 {
        stroke-miterlimit: 10;
        opacity: 0.642;
        fill: url(#linear-gradient);
      }

      .cls-2, .cls-3 {
        stroke: none;
      }

      .cls-3 {
        fill: #979797;
      }
    </style>
    <linearGradient id="linear-gradient" x1="0.5" y1="0.003" x2="0.5" y2="1" gradientUnits="objectBoundingBox">
      <stop offset="0" stop-color="#20293e"/>
      <stop offset="1" stop-color="#131928"/>
    </linearGradient>
  </defs>
  <g id="Rectangle_Copy" data-name="Rectangle Copy" class="cls-1" transform="translate(-0.042)">
    <path class="cls-2" d="M 1137.231323242188 774.7181396484375 C 1136.240356445312 774.7181396484375 1135.25537109375 774.5430297851562 1134.303466796875 774.1975708007812 L 66.08769226074219 386.6067199707031 C 56.39326477050781 383.0891418457031 47.35197830200195 378.1204223632812 39.21469497680664 371.8384399414062 C 31.25383758544922 365.6925659179688 24.28683662414551 358.3927001953125 18.50712203979492 350.141845703125 C 12.72726535797119 341.8909912109375 8.247122764587402 332.8491516113281 5.190979480743408 323.267578125 C 2.067122459411621 313.4737243652344 0.4862653315067291 303.2788696289062 0.4925510585308075 292.9660034179688 L 0.6644082069396973 8.994856834411621 C 0.6672653555870056 4.283143043518066 4.50283670425415 0.449999988079071 9.214407920837402 0.449999988079071 L 1137.219848632812 0.449999988079071 C 1141.934326171875 0.449999988079071 1145.769897460938 4.285571575164795 1145.769897460938 9 L 1145.769897460938 766.160400390625 C 1145.769897460938 768.4877319335938 1144.857421875 770.658447265625 1143.200439453125 772.2725830078125 C 1141.605224609375 773.8267211914062 1139.429565429688 774.7181396484375 1137.231323242188 774.7181396484375 Z"/>
    <path class="cls-3" d="M 9.21435546875 0.9000244140625 C 4.750732421875 0.9000244140625 1.1170654296875 4.53143310546875 1.1143798828125 8.9951171875 L 0.9423828125 292.9662780761719 C 0.936279296875 303.2325744628906 2.5098876953125 313.3814392089844 5.6195068359375 323.130859375 C 8.6619873046875 332.6691284179688 13.1219482421875 341.6700134277344 18.875732421875 349.8837280273438 C 24.6292724609375 358.0972900390625 31.5648193359375 365.3641357421875 39.48974609375 371.4821472167969 C 47.590087890625 377.7357177734375 56.590576171875 382.6820068359375 66.2412109375 386.1837158203125 L 1134.45703125 773.7745971679688 C 1135.359497070312 774.1021728515625 1136.29296875 774.2681274414062 1137.231323242188 774.2681274414062 C 1139.313232421875 774.2681274414062 1141.37451171875 773.4232788085938 1142.886352539062 771.9502563476562 C 1144.455688476562 770.4214477539062 1145.31982421875 768.3651123046875 1145.31982421875 766.1602783203125 L 1145.31982421875 9 C 1145.31982421875 4.53369140625 1141.686157226562 0.9000244140625 1137.219848632812 0.9000244140625 L 9.21435546875 0.9000244140625 M 9.21435546875 0 L 1137.219848632812 0 C 1142.190307617188 0 1146.219848632812 4.0294189453125 1146.219848632812 9 L 1146.219848632812 766.1602783203125 C 1146.219848632812 772.4032592773438 1140.018676757812 776.75 1134.150024414062 774.6205444335938 L 65.934326171875 387.0297241210938 C 26.360107421875 372.6705627441406 0.0169677734375 335.0644226074219 0.0423583984375 292.9657287597656 L 0.21435546875 8.99456787109375 C 0.2174072265625 4.026123046875 4.2459716796875 0 9.21435546875 0 Z"/>
  </g>
</svg>
