<svg xmlns="http://www.w3.org/2000/svg" xmlns:xlink="http://www.w3.org/1999/xlink" width="1146.181" height="832.84" viewBox="0 0 1146.181 832.84">
  <defs>
    <style>
      .cls-1 {
        stroke-miterlimit: 10;
        opacity: 0.642;
        fill: url(#linear-gradient);
      }

      .cls-2, .cls-3 {
        stroke: none;
      }

      .cls-3 {
        fill: #979797;
      }
    </style>
    <linearGradient id="linear-gradient" x1="0.5" y1="0.003" x2="0.5" y2="1" gradientUnits="objectBoundingBox">
      <stop offset="0" stop-color="#20293e"/>
      <stop offset="1" stop-color="#131928"/>
    </linearGradient>
  </defs>
  <g id="Rectangle_Copy" data-name="Rectangle Copy" class="cls-1" transform="translate(-0.039)">
    <path class="cls-2" d="M 1137.228881835938 832.3900756835938 C 1136.170654296875 832.3900756835938 1135.122802734375 832.1907958984375 1134.1142578125 831.7975463867188 L 63.87926864624023 414.5615234375 C 54.46498107910156 410.8913879394531 45.70326614379883 405.83837890625 37.83769607543945 399.5429382324219 C 30.13655281066895 393.3790893554688 23.40641021728516 386.1173706054688 17.83426856994629 377.9595336914062 C 12.26212501525879 369.8016662597656 7.945982456207275 360.8910827636719 5.005696773529053 351.4753723144531 C 2.002696514129639 341.8586730957031 0.482839435338974 331.8592529296875 0.4885537028312683 321.7548217773438 L 0.6646965742111206 8.995238304138184 C 0.6674108505249023 4.283381462097168 4.502982139587402 0.4499526917934418 9.214696884155273 0.4499526917934418 L 1137.219848632812 0.4499526917934418 C 1141.934326171875 0.4499526917934418 1145.769897460938 4.285524368286133 1145.769897460938 8.99995231628418 L 1145.769897460938 823.83154296875 C 1145.769897460938 826.1625366210938 1144.855712890625 828.3350830078125 1143.195556640625 829.9490966796875 C 1141.599975585938 831.5003662109375 1139.425170898438 832.3900756835938 1137.228881835938 832.3900756835938 Z"/>
    <path class="cls-3" d="M 9.2147216796875 0.89996337890625 C 4.7508544921875 0.89996337890625 1.1173095703125 4.531494140625 1.11474609375 8.99554443359375 L 0.9385986328125 321.7549438476562 C 0.932861328125 331.8138122558594 2.44580078125 341.7680969238281 5.435302734375 351.3412475585938 C 8.3623046875 360.7143859863281 12.6588134765625 369.5846557617188 18.205810546875 377.7056579589844 C 23.7528076171875 385.82666015625 30.4525146484375 393.0556640625 38.118896484375 399.1915283203125 C 45.94873046875 405.4585266113281 54.670654296875 410.4886779785156 64.0426025390625 414.1422424316406 L 1134.277709960938 831.3782348632812 C 1135.234008789062 831.7510986328125 1136.226806640625 831.9401245117188 1137.228881835938 831.9401245117188 C 1139.308959960938 831.9401245117188 1141.369384765625 831.0968017578125 1142.881958007812 829.6264038085938 C 1144.453979492188 828.0978393554688 1145.31982421875 826.0399780273438 1145.31982421875 823.83154296875 L 1145.31982421875 8.99993896484375 C 1145.31982421875 4.53369140625 1141.686157226562 0.89996337890625 1137.219848632812 0.89996337890625 L 9.2147216796875 0.89996337890625 M 9.2147216796875 -6.103515625e-05 L 1137.219848632812 -6.103515625e-05 C 1142.190307617188 -6.103515625e-05 1146.219848632812 4.02935791015625 1146.219848632812 8.99993896484375 L 1146.219848632812 823.83154296875 C 1146.219848632812 830.1649780273438 1139.851684570312 834.5173950195312 1133.950805664062 832.216796875 L 63.7156982421875 414.9808044433594 C 25.300537109375 400.0045166015625 0.0152587890625 362.9858093261719 0.03857421875 321.75439453125 L 0.2147216796875 8.99493408203125 C 0.217529296875 4.0263671875 4.24609375 -6.103515625e-05 9.2147216796875 -6.103515625e-05 Z"/>
  </g>
</svg>
