<svg xmlns="http://www.w3.org/2000/svg" xmlns:xlink="http://www.w3.org/1999/xlink" width="1145.809" height="723.75" viewBox="0 0 1145.809 723.75">
  <defs>
    <linearGradient id="linear-gradient" x1="0.5" y1="0.003" x2="0.5" y2="1" gradientUnits="objectBoundingBox">
      <stop offset="0" stop-color="#20293e"/>
      <stop offset="1" stop-color="#131928"/>
    </linearGradient>
  </defs>
  <g id="Rectangle_Copy" data-name="Rectangle Copy" transform="translate(1146 723.75) rotate(-180)" stroke-miterlimit="10" opacity="0.642" fill="url(#linear-gradient)">
    <path d="M 1137.008056640625 723.2994995117188 C 1135.931762695312 723.2994995117188 1134.867065429688 723.0933837890625 1133.843505859375 722.686767578125 L 67.60623168945312 299.1263732910156 C 58.44323348999023 295.4862060546875 49.9022331237793 290.5283508300781 42.22037506103516 284.3900756835938 C 34.69223403930664 278.3747863769531 28.08480453491211 271.3053588867188 22.58194732666016 263.3785095214844 C 17.0790901184082 255.4515075683594 12.76566123962402 246.7896423339844 9.76180362701416 237.6336517333984 C 6.696517944335938 228.2906494140625 5.037374973297119 218.5552215576172 4.830375194549561 208.6979370117188 L 0.6428037881851196 9.179502487182617 C 0.5942323803901672 6.862216949462891 1.46051812171936 4.674074172973633 3.082089424133301 3.01807427406311 C 4.70366096496582 1.362074255943298 6.87308931350708 0.4500742256641388 9.190803527832031 0.4500742256641388 L 1137 0.4500742256641388 C 1141.71435546875 0.4500742256641388 1145.549926757812 4.285645484924316 1145.549926757812 9.00007438659668 L 1145.549926757812 714.7406616210938 C 1145.549926757812 717.0726318359375 1144.63525390625 719.2456665039062 1142.974365234375 720.8594970703125 C 1141.378540039062 722.4102172851562 1139.203979492188 723.2994995117188 1137.008056640625 723.2994995117188 Z" stroke="none"/>
    <path d="M 9.19091796875 0.89990234375 C 6.9952392578125 0.89990234375 4.93994140625 1.763916015625 3.4036865234375 3.3326416015625 C 1.867431640625 4.9014892578125 1.0465087890625 6.97467041015625 1.0926513671875 9.169921875 L 5.280517578125 208.6883544921875 C 5.486328125 218.501220703125 7.137939453125 228.1925048828125 10.1893310546875 237.4932250976562 C 13.1796875 246.6079406738281 17.4735107421875 255.2306518554688 22.9515380859375 263.1217956542969 C 28.4296875 271.012939453125 35.007080078125 278.0503540039062 42.501220703125 284.0386352539062 C 50.148193359375 290.14892578125 58.650634765625 295.0845031738281 67.7723388671875 298.7080688476562 L 1134.009643554688 722.2683715820312 C 1134.97998046875 722.6539306640625 1135.988891601562 722.849365234375 1137.008178710938 722.849365234375 C 1139.087890625 722.849365234375 1141.148193359375 722.0065307617188 1142.660766601562 720.5368041992188 C 1144.233642578125 719.0083618164062 1145.099975585938 716.949951171875 1145.099975585938 714.7406616210938 L 1145.099975585938 8.99993896484375 C 1145.099975585938 4.53363037109375 1141.466186523438 0.89990234375 1137 0.89990234375 L 9.19091796875 0.89990234375 M 9.19091796875 -6.103515625e-05 L 1137 -6.103515625e-05 C 1141.970458984375 -6.103515625e-05 1146 4.02935791015625 1146 8.99993896484375 L 1146 714.7406616210938 C 1146 721.0986328125 1139.586181640625 725.4520874023438 1133.677368164062 723.1047973632812 L 67.4400634765625 299.5444946289062 C 30.068115234375 284.6985168457031 5.224365234375 248.9110717773438 4.380615234375 208.7072143554688 L 0.1927490234375 9.18878173828125 C 0.0870361328125 4.1455078125 4.1463623046875 -6.103515625e-05 9.19091796875 -6.103515625e-05 Z" stroke="none" fill="#979797"/>
  </g>
</svg>
