<svg xmlns="http://www.w3.org/2000/svg" xmlns:xlink="http://www.w3.org/1999/xlink" width="1146.103" height="389.637" viewBox="0 0 1146.103 389.637">
  <defs>
    <linearGradient id="linear-gradient" x1="0.5" y1="0.003" x2="0.5" y2="1" gradientUnits="objectBoundingBox">
      <stop offset="0" stop-color="#20293e"/>
      <stop offset="1" stop-color="#131928"/>
    </linearGradient>
  </defs>
  <g id="Rectangle_Copy" data-name="Rectangle Copy" transform="translate(-0.057)" stroke-miterlimit="10" opacity="0.642" fill="url(#linear-gradient)">
    <path d="M 100.0459442138672 389.1871948242188 C 93.29294586181641 389.1871948242188 86.54380798339844 388.5066223144531 79.98609161376953 387.1643371582031 C 73.59494781494141 385.8560485839844 67.30809020996094 383.904052734375 61.30037689208984 381.3623352050781 C 55.40094757080078 378.8666076660156 49.71109008789062 375.7774658203125 44.3886604309082 372.1810302734375 C 39.1160888671875 368.6181945800781 34.15823364257812 364.526611328125 29.65280532836914 360.0198974609375 C 25.14680480957031 355.5126037597656 21.05623435974121 350.5531921386719 17.49480438232422 345.2793273925781 C 13.89894771575928 339.9541931152344 10.81109046936035 334.2616271972656 8.316947937011719 328.359619140625 C 5.776376247406006 322.347900390625 3.826233386993408 316.0566101074219 2.520376443862915 309.6607666015625 C 1.180376291275024 303.0971984863281 0.5028048753738403 296.3413391113281 0.5066620111465454 289.5810546875 L 0.6648048758506775 8.995183944702148 C 0.6673763394355774 4.283326625823975 4.502947807312012 0.4500409662723541 9.214804649353027 0.4500409662723541 L 1137.1591796875 0.4500409662723541 C 1139.453979492188 0.4500409662723541 1141.608032226562 1.346612453460693 1143.225219726562 2.974612474441528 C 1144.842407226562 4.602612495422363 1145.724365234375 6.762897968292236 1145.708984375 9.057469367980957 L 1143.852905273438 285.5623168945312 C 1143.807983398438 292.2619018554688 1143.093139648438 298.9546203613281 1141.728271484375 305.4544677734375 C 1140.397705078125 311.7910461425781 1138.433349609375 318.0224609375 1135.889892578125 323.9757690429688 C 1133.391967773438 329.8224792480469 1130.309936523438 335.4616088867188 1126.729370117188 340.7366027832031 C 1123.182373046875 345.9621887207031 1119.1142578125 350.8776245117188 1114.63818359375 355.3460388183594 C 1110.162231445312 359.8146057128906 1105.239990234375 363.8743286132812 1100.008422851562 367.41259765625 C 1094.727416992188 370.9841918945312 1089.0830078125 374.0567626953125 1083.23193359375 376.5447692871094 C 1077.274536132812 379.0780334472656 1071.039672851562 381.0318908691406 1064.700927734375 382.3517456054688 C 1058.198852539062 383.7057495117188 1051.505004882812 384.4091796875 1044.80517578125 384.4429016113281 L 100.5566635131836 389.1859130859375 C 100.3882369995117 389.186767578125 100.2142333984375 389.1871948242188 100.0459442138672 389.1871948242188 Z" stroke="none"/>
    <path d="M 9.2147216796875 0.900054931640625 C 4.7508544921875 0.900054931640625 1.1171875 4.5316162109375 1.1146240234375 8.9954833984375 L 0.9566650390625 289.5813293457031 C 0.9527587890625 296.3113403320312 1.6273193359375 303.0367431640625 2.96142578125 309.5707397460938 C 4.26123046875 315.9374694824219 6.2025146484375 322.2000427246094 8.7315673828125 328.1844787597656 C 11.2142333984375 334.0597534179688 14.2882080078125 339.7264709472656 17.8677978515625 345.0274658203125 C 21.4132080078125 350.2776184082031 25.4853515625 355.2147521972656 29.9710693359375 359.7017517089844 C 34.4561767578125 364.1881713867188 39.391845703125 368.2613220214844 44.640625 371.8081970214844 C 49.9390869140625 375.3883361816406 55.603271484375 378.4634704589844 61.475830078125 380.9479064941406 C 67.4560546875 383.47802734375 73.71435546875 385.4211730957031 80.076416015625 386.7234802246094 C 86.6044921875 388.0596008300781 93.3232421875 388.7371826171875 100.0458984375 388.7371826171875 C 100.21337890625 388.7371826171875 100.3868408203125 388.7367553710938 100.5543212890625 388.7359008789062 L 1044.802978515625 383.9928894042969 C 1051.47265625 383.95947265625 1058.136352539062 383.259033203125 1064.609130859375 381.9111938476562 C 1070.919067382812 380.5973205566406 1077.12548828125 378.6524658203125 1083.055786132812 376.130615234375 C 1088.88037109375 373.6539001464844 1094.499145507812 370.5953369140625 1099.756225585938 367.0397644042969 C 1104.964233398438 363.5174560546875 1109.864379882812 359.4760437011719 1114.320190429688 355.0276184082031 C 1118.776123046875 350.5791931152344 1122.825927734375 345.68603515625 1126.357055664062 340.48388671875 C 1129.92138671875 335.2327575683594 1132.989501953125 329.6191711425781 1135.47607421875 323.7988891601562 C 1138.007934570312 317.8727416992188 1139.963256835938 311.6696166992188 1141.287841796875 305.3619079589844 C 1142.646484375 298.8914794921875 1143.358276367188 292.2288818359375 1143.402954101562 285.559326171875 L 1145.258911132812 9.054473876953125 C 1145.273559570312 6.880615234375 1144.43798828125 4.83404541015625 1142.906005859375 3.291748046875 C 1141.373901367188 1.749481201171875 1139.3330078125 0.900054931640625 1137.159057617188 0.900054931640625 L 9.2147216796875 0.900054931640625 M 9.2147216796875 3.0517578125e-05 L 1137.159057617188 3.0517578125e-05 C 1142.153198242188 3.0517578125e-05 1146.192504882812 4.066314697265625 1146.158935546875 9.060455322265625 L 1144.302978515625 285.5653381347656 C 1143.935180664062 340.3348999023438 1099.577514648438 384.6177673339844 1044.807495117188 384.8928833007812 L 100.5589599609375 389.6358947753906 C 100.3897705078125 389.6367492675781 100.2149658203125 389.6371765136719 100.0458984375 389.6371765136719 C 44.83251953125 389.6371765136719 0.0255126953125 344.8582763671875 0.056640625 289.5807495117188 L 0.2147216796875 8.994903564453125 C 0.217529296875 4.026336669921875 4.24609375 3.0517578125e-05 9.2147216796875 3.0517578125e-05 Z" stroke="none" fill="#979797"/>
  </g>
</svg>
